<svg xmlns="http://www.w3.org/2000/svg" width="30" height="33.696" viewBox="0 0 30 33.696">
  <g id="was_featured-s" transform="translate(0 -0.152)">
    <path id="Path_25097" data-name="Path 25097" d="M30,22.5a4.192,4.192,0,0,1-1.665,3.111l-11.67,7.78a3.259,3.259,0,0,1-3.33,0L1.665,25.61A4.19,4.19,0,0,1,0,22.5v-11A4.192,4.192,0,0,1,1.665,8.39L13.335.61a3.259,3.259,0,0,1,3.33,0l11.67,7.78A4.19,4.19,0,0,1,30,11.5v11Z" fill="#56a4ca"/>
    <g id="Group_21579" data-name="Group 21579">
      <path id="Path_25098" data-name="Path 25098" d="M3.6,22.793A.5.5,0,0,0,4,23H26a.5.5,0,0,0,.475-.656L20.133,2.922l-1.345-.9L25.311,22H4.689L11.211,2.026l-1.344.9L3.525,22.345a.5.5,0,0,0,.07.448Z" fill="#fff"/>
      <path id="Path_25099" data-name="Path 25099" d="M15,26.5c-.115,0-11.5-.029-11.5-2.5S14.885,21.5,15,21.5s11.5.029,11.5,2.5S15.115,26.5,15,26.5Z" fill="#56a4ca"/>
      <path id="Path_25100" data-name="Path 25100" d="M15,22c5.747,0,11,.9,11,2s-5.253,2-11,2S4,25.1,4,24s5.253-2,11-2m0-1c-2.815,0-12,.216-12,3s9.185,3,12,3,12-.216,12-3S17.815,21,15,21Z" fill="#fff"/>
      <circle id="Ellipse_569" data-name="Ellipse 569" cx="3" cy="3" r="3" transform="translate(12 8)" fill="#fff"/>
      <path id="Path_25101" data-name="Path 25101" d="M12,24.5a.5.5,0,0,1-.5-.5V19a3.5,3.5,0,0,1,7,0v5a.5.5,0,0,1-.5.5Z" fill="#fff"/>
      <path id="Path_25102" data-name="Path 25102" d="M15,16a3,3,0,0,1,3,3v5H12V19a3,3,0,0,1,3-3m0-1a4,4,0,0,0-4,4v5a1,1,0,0,0,1,1h6a1,1,0,0,0,1-1V19A4,4,0,0,0,15,15Z" fill="#56a4ca"/>
    </g>
    <path id="Path_25103" data-name="Path 25103" d="M15,1.152a2.057,2.057,0,0,1,1.11.29l11.67,7.78A3.211,3.211,0,0,1,29,11.5v11a3.214,3.214,0,0,1-1.219,2.279l-11.67,7.78a2.269,2.269,0,0,1-2.22,0l-11.67-7.78A3.209,3.209,0,0,1,1,22.5v-11A3.214,3.214,0,0,1,2.219,9.222l11.67-7.78A2.063,2.063,0,0,1,15,1.152m0-1A3.05,3.05,0,0,0,13.335.61L1.665,8.39A4.19,4.19,0,0,0,0,11.5v11A4.192,4.192,0,0,0,1.665,25.61l11.67,7.78a3.255,3.255,0,0,0,3.33,0l11.67-7.78A4.19,4.19,0,0,0,30,22.5v-11A4.192,4.192,0,0,0,28.335,8.39L16.665.61A3.05,3.05,0,0,0,15,.152Z" fill="#56a4ca"/>
  </g>
</svg>
