<svg xmlns="http://www.w3.org/2000/svg" width="36" height="36" viewBox="0 0 36 36">
  <g id="Group_26227" data-name="Group 26227" transform="translate(2652 -6365)">
    <rect id="Rectangle_18844" data-name="Rectangle 18844" width="36" height="36" transform="translate(-2652 6365)" fill="none"/>
    <g id="one_billion_milestone-s" transform="translate(-2899.4 6165.3)">
      <path id="Path_25104" data-name="Path 25104" d="M280.394,222.979a4.031,4.031,0,0,1-1.8,3.088l-11.656,7.775a3.222,3.222,0,0,1-3.287,0l-11.56-7.775a3.93,3.93,0,0,1-1.694-3.088V212.014a3.921,3.921,0,0,1,1.694-3.088l11.662-7.775a3.222,3.222,0,0,1,3.287,0l11.662,7.775a4.239,4.239,0,0,1,1.694,3.088v10.965Z" fill="#99c267"/>
      <path id="Path_25105" data-name="Path 25105" d="M512.663,248.453a3.666,3.666,0,0,0,1.658-2.824v-10a3.852,3.852,0,0,0-1.568-2.824l-10.791-7.1a2.862,2.862,0,0,0-1.562-.409v30.667a2.766,2.766,0,0,0,1.466-.409Z" transform="translate(-234.979 -23.119)" fill="#80b341"/>
      <g id="Group_21580" data-name="Group 21580" transform="translate(254.846 213.12)">
        <path id="Path_25106" data-name="Path 25106" d="M472.047,416.843h-1.436V410.3h-.048l-1.863,1.19v-1.322l1.971-1.268h1.37v7.943Z" transform="translate(-460.03 -408.81)" fill="#fff"/>
        <path id="Path_25107" data-name="Path 25107" d="M559.3,408.9h3.04c1.724,0,2.572.877,2.572,2.061a1.654,1.654,0,0,1-1.388,1.688v.078a1.849,1.849,0,0,1,1.7,1.953c0,1.238-.889,2.163-2.71,2.163H559.3Zm2.86,3.377a1.174,1.174,0,0,0,1.316-1.13c0-.613-.439-1.057-1.286-1.057h-1.454v2.193h1.424Zm.126,3.365c1.045,0,1.478-.445,1.478-1.076a1.288,1.288,0,0,0-1.436-1.25h-1.586v2.325Z" transform="translate(-545.186 -408.81)" fill="#fff"/>
        <path id="Path_25108" data-name="Path 25108" d="M330.643,407.754c-1.106-1.3-4.693,1.22-4.675,4.464a.147.147,0,0,1-.03.09.143.143,0,0,1-.078.054.153.153,0,0,1-.168-.066,3.418,3.418,0,0,1-.132-2.554.193.193,0,0,0,.006-.1.166.166,0,0,0-.066-.078.139.139,0,0,0-.1-.018.117.117,0,0,0-.084.054,3.464,3.464,0,0,0-.919,2.355,3.427,3.427,0,0,0,3.479,3.479C332.764,415.325,331.634,408.914,330.643,407.754Z" transform="translate(-324.4 -407.406)" fill="#fff"/>
      </g>
    </g>
  </g>
</svg>
