<svg xmlns="http://www.w3.org/2000/svg" width="36" height="36" viewBox="0 0 36 36">
  <g id="Group_26226" data-name="Group 26226" transform="translate(2596 -6366)">
    <rect id="Rectangle_18844" data-name="Rectangle 18844" width="36" height="36" transform="translate(-2596 6366)" fill="none"/>
    <g id="power_elite-0" transform="translate(-2593 6366.4)">
      <path id="Path_40142" data-name="Path 40142" d="M29.95,22.913a4.126,4.126,0,0,1-1.672,3.095L16.622,33.77a3.29,3.29,0,0,1-3.319,0L1.672,26.008A4.126,4.126,0,0,1,0,22.913V11.931A4.126,4.126,0,0,1,1.672,8.836L13.3,1.049a3.337,3.337,0,0,1,3.344,0L28.3,8.811a4.126,4.126,0,0,1,1.672,3.095V22.913Z" fill="#72bf40"/>
      <g id="Group_26218" data-name="Group 26218" transform="translate(4.992 7.439)">
        <path id="Path_40143" data-name="Path 40143" d="M25.99,34.489h7.987v1.5H25.99Zm-1,2.5h9.983v1.5H24.992Zm-1.248,2.5H36.223v1.5H23.744Zm6.24-10.732a9.235,9.235,0,1,1-9.235,9.235,9.246,9.246,0,0,1,9.235-9.235m0-.749a9.983,9.983,0,1,0,9.983,9.983A9.981,9.981,0,0,0,29.983,28Z" transform="translate(-20 -28)" fill="#fff"/>
      </g>
      <path id="Path_40144" data-name="Path 40144" d="M73.3,8.836,61.672,1.049A3.045,3.045,0,0,0,60,.6V34.244a3.167,3.167,0,0,0,1.672-.449l11.656-7.762A4.126,4.126,0,0,0,75,22.938V11.931a4.233,4.233,0,0,0-1.7-3.095Z" transform="translate(-45.025 0)" opacity="0.08"/>
      <path id="Path_40145" data-name="Path 40145" d="M14.975,1.6a1.9,1.9,0,0,1,1.1.3L27.729,9.66a3.148,3.148,0,0,1,1.223,2.271V22.913a3.148,3.148,0,0,1-1.223,2.271L16.073,32.946a2.107,2.107,0,0,1-1.1.3,1.9,1.9,0,0,1-1.1-.3L2.221,25.184A3.148,3.148,0,0,1,1,22.913V11.931A3.148,3.148,0,0,1,2.221,9.66L13.877,1.9a1.9,1.9,0,0,1,1.1-.3m0-1a3.167,3.167,0,0,0-1.672.449L1.672,8.836A4.126,4.126,0,0,0,0,11.931V22.913a4.126,4.126,0,0,0,1.672,3.095L13.328,33.77A3.045,3.045,0,0,0,15,34.219a3.105,3.105,0,0,0,1.672-.449l11.656-7.762A4.126,4.126,0,0,0,30,22.913V11.931a4.126,4.126,0,0,0-1.672-3.095L16.647,1.049A3.167,3.167,0,0,0,14.975.6Z" transform="translate(0 0)" fill="#72bf40"/>
    </g>
  </g>
</svg>
