<svg xmlns="http://www.w3.org/2000/svg" width="36" height="36" viewBox="0 0 36 36">
  <g id="Group_26225" data-name="Group 26225" transform="translate(2540 -6366)">
    <rect id="Rectangle_18844" data-name="Rectangle 18844" width="36" height="36" transform="translate(-2540 6366)" fill="none"/>
    <g id="was_top_monthly_author" transform="translate(-2537 6367)">
      <path id="Path_25109" data-name="Path 25109" d="M29.8,22.153a3.913,3.913,0,0,1-1.689,3.079L16.49,32.98a3.228,3.228,0,0,1-3.278,0L1.689,25.331A4.212,4.212,0,0,1,0,22.252V11.325A3.913,3.913,0,0,1,1.689,8.245L13.311.5a3.228,3.228,0,0,1,3.278,0L28.212,8.245A4.212,4.212,0,0,1,29.9,11.325V22.153Z" transform="translate(0 0)" fill="#8360a8"/>
      <path id="Path_25110" data-name="Path 25110" d="M14.947,15.416a7.97,7.97,0,0,0,7.947-7.947,8.782,8.782,0,0,0-.7-3.278L20.113,2.8A6.981,6.981,0,0,1,21.9,7.469a6.954,6.954,0,0,1-13.907,0A6.981,6.981,0,0,1,9.781,2.8L7.7,4.191A8.782,8.782,0,0,0,7,7.469a7.97,7.97,0,0,0,7.947,7.947Z" transform="translate(-0.046 -0.019)" fill="#fff"/>
      <g id="Group_21581" data-name="Group 21581" transform="translate(7.908 5.762)">
        <path id="Path_25111" data-name="Path 25111" d="M14.957,27.161a4.812,4.812,0,0,1-1.788-.3,3.52,3.52,0,0,1-1.192-.993l-.3-.1L9.3,26.863H9.2a.546.546,0,0,1-.5-.3.872.872,0,0,1-.1-.7l2.483-6.954V16.333c0-5.166,2.483-10.033,4.073-10.033s4.073,4.868,4.073,10.033v2.583l2.483,6.954a.872.872,0,0,1-.1.7.546.546,0,0,1-.5.3h-.2l-2.384-.993-.6.1a1.933,1.933,0,0,1-1.192.993,8.91,8.91,0,0,1-1.788.2Z" transform="translate(-7.965 -5.803)" fill="#fff"/>
        <path id="Path_25112" data-name="Path 25112" d="M14.953,6.793c.993,0,3.576,4.272,3.576,9.536,0,.7,0,1.689-.1,2.682l2.483,7.053c0,.1,0,.3-.1.3L18.331,25.27l-.6.2a1.7,1.7,0,0,1-.993.894,3.873,3.873,0,0,1-1.589.2,6.912,6.912,0,0,1-1.589-.2,2.112,2.112,0,0,1-.993-.894l-.6-.3L9.49,26.264c-.5.1-.5-.1-.5-.2l2.483-7.053V16.33c-.1-5.265,2.483-9.536,3.477-9.536m0-.993c-2.285,0-4.57,6.06-4.57,10.53v2.483L8,25.668a1.54,1.54,0,0,0,.2,1.192,1.185,1.185,0,0,0,.894.5h.2l.2-.1,2.185-.894a3.317,3.317,0,0,0,1.291,1.093,5.376,5.376,0,0,0,1.887.3,5.376,5.376,0,0,0,1.887-.3,3.031,3.031,0,0,0,1.291-.993l2.185.894.2.1h.2a1.043,1.043,0,0,0,.894-.5,1.456,1.456,0,0,0,.2-1.093l-2.384-6.854V16.528C19.523,11.86,17.238,5.8,14.953,5.8Z" transform="translate(-7.961 -5.8)" fill="#8360a8"/>
      </g>
      <circle id="Ellipse_571" data-name="Ellipse 571" cx="1.49" cy="1.49" r="1.49" transform="translate(13.411 14.205)" fill="#8360a8"/>
      <circle id="Ellipse_572" data-name="Ellipse 572" cx="0.993" cy="0.993" r="0.993" transform="translate(9.934 7.45)" fill="#fff"/>
      <circle id="Ellipse_573" data-name="Ellipse 573" cx="0.993" cy="0.993" r="0.993" transform="translate(11.921 3.477)" fill="#fff"/>
      <path id="Path_25113" data-name="Path 25113" d="M14.9.993a2,2,0,0,1,1.093.3L27.616,9.04a3.24,3.24,0,0,1,1.192,2.285V22.252a3.24,3.24,0,0,1-1.192,2.285L15.993,32.285a2.152,2.152,0,0,1-2.185,0L2.185,24.437A3.24,3.24,0,0,1,.993,22.152V11.225A3.24,3.24,0,0,1,2.185,8.94L13.808,1.192A3.571,3.571,0,0,1,14.9.993M14.9,0a3.349,3.349,0,0,0-1.689.5L1.689,8.146A3.913,3.913,0,0,0,0,11.225V22.152a3.913,3.913,0,0,0,1.689,3.079L13.311,32.98a3.119,3.119,0,0,0,3.377,0l11.623-7.748A4.212,4.212,0,0,0,30,22.152V11.225a3.913,3.913,0,0,0-1.689-3.079L16.589.5A3.349,3.349,0,0,0,14.9,0Z" transform="translate(0 0)" fill="#8360a8"/>
      <path id="Path_25114" data-name="Path 25114" d="M28.148,32.746a1.284,1.284,0,0,1-.993-.4,1.408,1.408,0,0,1-.4-1.093v-.894l-.5,1.192a1.431,1.431,0,0,1-2.781,0l-.5-.993v.795a1.295,1.295,0,1,1-2.583,0V26.189A1.486,1.486,0,0,1,21.89,24.6a1.647,1.647,0,0,1,1.589,1.291L24.87,29.07l1.391-3.179c.4-.894.894-1.291,1.589-1.291a1.435,1.435,0,0,1,1.49,1.589v5.166a1.163,1.163,0,0,1-1.192,1.391Z" transform="translate(-0.135 -0.163)" fill="#fff"/>
      <path id="Path_25115" data-name="Path 25115" d="M27.946,25.093a1,1,0,0,1,.993,1.093v5.166a.792.792,0,0,1-.795.894c-.3,0-.795-.1-.795-.894V28.074l-1.49,3.377c-.3.7-.6.795-.894.795s-.7-.1-.894-.795l-1.391-3.377v3.278c0,.795-.5.894-.795.894s-.795-.1-.795-.894V26.186c0-.993.7-1.093.993-1.093s.795.1,1.192.993l1.788,4.272,1.788-4.272c.3-.894.795-.993,1.093-.993m0-.993a2.257,2.257,0,0,0-2.086,1.589l-.894,1.589-.993-1.589A2.257,2.257,0,0,0,21.887,24.1,1.955,1.955,0,0,0,19.9,26.186v5.166a1.8,1.8,0,0,0,1.788,1.887,1.909,1.909,0,0,0,1.589-.894,1.79,1.79,0,0,0,1.589.894,1.613,1.613,0,0,0,1.589-.993,1.371,1.371,0,0,0,.3.4,1.888,1.888,0,0,0,1.291.5,1.746,1.746,0,0,0,1.788-1.887V26.087A1.754,1.754,0,0,0,27.946,24.1Z" transform="translate(-0.132 -0.16)" fill="#8360a8"/>
      <path id="Path_25116" data-name="Path 25116" d="M16.48,33.959V29.29a1.49,1.49,0,0,0-2.98,0v4.669Z" transform="translate(-0.089 -0.184)" fill="#fff"/>
    </g>
  </g>
</svg>
