<svg xmlns="http://www.w3.org/2000/svg" width="36" height="36" viewBox="0 0 36 36">
  <g id="Group_26224" data-name="Group 26224" transform="translate(2484 -6365)">
    <rect id="Rectangle_18844" data-name="Rectangle 18844" width="36" height="36" transform="translate(-2484 6365)" fill="none"/>
    <g id="was_weekly_top_seller" transform="translate(-2481 6365.95)">
      <path id="Path_25119" data-name="Path 25119" d="M29.9,22.226a3.926,3.926,0,0,1-1.694,3.09L16.545,33.09a3.239,3.239,0,0,1-3.289,0L1.694,25.415A4.226,4.226,0,0,1,0,22.326V11.362a3.926,3.926,0,0,1,1.694-3.09L13.355.5a3.239,3.239,0,0,1,3.289,0L28.306,8.273A4.226,4.226,0,0,1,30,11.362V22.226Z" fill="#8360a8"/>
      <g id="Group_21583" data-name="Group 21583" transform="translate(7.934 5.781)">
        <path id="Path_25120" data-name="Path 25120" d="M14.979,27.23a4.828,4.828,0,0,1-1.794-.3,3.531,3.531,0,0,1-1.2-1l-.3-.1L9.3,26.931H9.2a.548.548,0,0,1-.5-.3.875.875,0,0,1-.1-.7l2.492-6.977V16.366c0-5.183,2.492-10.066,4.086-10.066s4.086,4.884,4.086,10.066v2.591l2.492,6.977a.875.875,0,0,1-.1.7.548.548,0,0,1-.5.3h-.2l-2.392-1-.6.1a1.939,1.939,0,0,1-1.2,1,8.939,8.939,0,0,1-1.794.2Z" transform="translate(-7.963 -5.802)" fill="#fff"/>
        <path id="Path_25121" data-name="Path 25121" d="M14.977,6.8c1,0,3.588,4.286,3.588,9.568,0,.7,0,1.694-.1,2.691l2.492,7.076c0,.1,0,.3-.1.3l-2.492-1.1-.6.2a1.7,1.7,0,0,1-1,.9,3.886,3.886,0,0,1-1.595.2,6.935,6.935,0,0,1-1.595-.2,2.119,2.119,0,0,1-1-.9l-.6-.3-2.492,1.1c-.5.1-.5-.1-.5-.2l2.492-7.076V16.365c-.1-5.282,2.492-9.568,3.488-9.568m0-1c-2.292,0-4.585,6.08-4.585,10.565v2.492L8,25.734a1.545,1.545,0,0,0,.2,1.2,1.189,1.189,0,0,0,.9.5h.2l.2-.1,2.193-.9a3.328,3.328,0,0,0,1.3,1.1,5.394,5.394,0,0,0,1.894.3,5.394,5.394,0,0,0,1.894-.3,3.041,3.041,0,0,0,1.3-1l2.193.9.2.1h.2a1.047,1.047,0,0,0,.9-.5,1.46,1.46,0,0,0,.2-1.1l-2.392-6.877V16.564C19.561,11.88,17.269,5.8,14.977,5.8Z" transform="translate(-7.961 -5.8)" fill="#8360a8"/>
      </g>
      <circle id="Ellipse_574" data-name="Ellipse 574" cx="1.495" cy="1.495" r="1.495" transform="translate(13.455 14.253)" fill="#8360a8"/>
      <path id="Path_25122" data-name="Path 25122" d="M16.49,33.968V29.284a1.5,1.5,0,1,0-2.99,0v4.684Zm9.767-1.2a1.578,1.578,0,0,1-1.595-1.3l-.7-2.392-.7,2.392a1.681,1.681,0,0,1-1.595,1.3,1.578,1.578,0,0,1-1.595-1.3l-1.595-5.083a1.084,1.084,0,0,1-.1-.5,1.363,1.363,0,0,1,1.4-1.4,1.465,1.465,0,0,1,1.4,1.2l.6,2.292L22.37,26c.3-1,.8-1.5,1.595-1.5s1.3.5,1.595,1.5l.6,1.993.6-2.392a1.36,1.36,0,0,1,1.3-1.1,1.256,1.256,0,0,1,1.3,1.3.9.9,0,0,1-.1.5l-1.595,5.083a1.353,1.353,0,0,1-1.4,1.4Z" transform="translate(-0.045 -0.081)" fill="#fff"/>
      <path id="Path_25123" data-name="Path 25123" d="M28.166,25.1a.786.786,0,0,1,.8.8.753.753,0,0,1-.1.4l-1.595,5.083c-.3.8-.8.9-1.1.9s-.8-.1-1.1-.9l-1.1-3.887-1.2,3.887a1.017,1.017,0,0,1-1.1.9c-.4,0-.8-.1-1.1-.9L19,26.293c0-.2-.1-.3-.1-.4a.893.893,0,0,1,.9-.9c.3,0,.7.1.9.8l1.1,3.987,1.1-3.688c.3-1,.8-1.1,1.1-1.1s.8.1,1.1,1.1l1.1,3.688,1.1-3.987a.885.885,0,0,1,.9-.7m0-1a1.813,1.813,0,0,0-1.794,1.5l-.2.6-.1-.3a2.118,2.118,0,0,0-4.186,0l-.1.3-.1-.5A1.912,1.912,0,0,0,19.794,24.1,1.892,1.892,0,0,0,17.9,25.994a1.946,1.946,0,0,0,.1.7l1.595,5.083a2.092,2.092,0,0,0,4.086-.1l.3-.8.3.8a1.921,1.921,0,0,0,1.993,1.595,2.016,2.016,0,0,0,1.993-1.595l1.595-5.083a1.946,1.946,0,0,0,.1-.7A1.787,1.787,0,0,0,28.166,24.1Z" transform="translate(-0.059 -0.08)" fill="#8360a8"/>
    </g>
  </g>
</svg>
