<svg xmlns="http://www.w3.org/2000/svg" width="36" height="36" viewBox="0 0 36 36">
  <g id="Group_26223" data-name="Group 26223" transform="translate(2428 -6366)">
    <rect id="Rectangle_18844" data-name="Rectangle 18844" width="36" height="36" transform="translate(-2428 6366)" fill="none"/>
    <g id="author_level_12" transform="translate(-2425 6366.848)">
      <path id="Path_40152" data-name="Path 40152" d="M30,22.5a4.192,4.192,0,0,1-1.665,3.111l-11.67,7.78a3.259,3.259,0,0,1-3.33,0L1.665,25.61A4.19,4.19,0,0,1,0,22.5v-11A4.192,4.192,0,0,1,1.665,8.39L13.335.61a3.259,3.259,0,0,1,3.33,0l11.67,7.78A4.19,4.19,0,0,1,30,11.5v11Z" fill="#c94e4b"/>
      <path id="Path_40153" data-name="Path 40153" d="M20.089,18.283a6.854,6.854,0,0,0-9.935-.392c-1.389,1.431-2.031,3.235-.827,4.988a3.11,3.11,0,0,0,3.691,1.448,6.425,6.425,0,0,1,1.6-.271H14.9a5.435,5.435,0,0,1,1.508.457,4.466,4.466,0,0,0,.935.305,3.1,3.1,0,0,0,2.055-.627C21.619,22.786,21.7,20.252,20.089,18.283Zm-8.758-5.059a3.61,3.61,0,0,0,1.423.36c2.159,0,2.739-6.836.194-6.407-1.243.209-2.14,1.684-2.662,2.7a2.2,2.2,0,0,0,1.045,3.343Zm-.617,2.195c-.114-1.248-2.2-4.053-3.684-3.016-1.508,1.143-1.328,4.326.334,5.306,1.175.692,3.231-1.136,3.35-2.29-.032-.342-.085.816,0,0Zm5.974-1.655c1.2.179,3.19-.535,3.245-1.989,0-1.374-1.617-4.934-3.424-4.269-1.734.556-1.7,5.98.179,6.258Zm7.3.772A3.144,3.144,0,0,0,23,12.494c-.8-.674-1.9.282-2.438.841-1.026,1.062-1.843,2.284-.7,3.542.554.613,1.655,1.493,2.556,1.131C23.6,17.533,24.086,15.668,23.988,14.536Z" fill="#fff"/>
      <path id="Path_40154" data-name="Path 40154" d="M15,1.152a2.057,2.057,0,0,1,1.11.29l11.67,7.78A3.211,3.211,0,0,1,29,11.5v11a3.214,3.214,0,0,1-1.219,2.279l-11.67,7.78a2.269,2.269,0,0,1-2.22,0l-11.67-7.78A3.209,3.209,0,0,1,1,22.5v-11A3.214,3.214,0,0,1,2.219,9.222l11.67-7.78A2.063,2.063,0,0,1,15,1.152m0-1A3.05,3.05,0,0,0,13.335.61L1.665,8.39A4.19,4.19,0,0,0,0,11.5v11A4.192,4.192,0,0,0,1.665,25.61l11.67,7.78a3.255,3.255,0,0,0,3.33,0l11.67-7.78A4.19,4.19,0,0,0,30,22.5v-11A4.192,4.192,0,0,0,28.335,8.39L16.665.61A3.05,3.05,0,0,0,15,.152Z" fill="#c94e4b"/>
      <g id="Group_26219" data-name="Group 26219">
        <path id="Path_40155" data-name="Path 40155" d="M27.714,28.823l0,0a4.378,4.378,0,0,0,1.822-3.362c0-2.121-1.674-3.6-4.07-3.6A4.335,4.335,0,0,0,22.357,23.1a2.154,2.154,0,0,0-1.949-1.139,2.556,2.556,0,0,0-1.508.548l-1.746,1.276a1.966,1.966,0,0,0-.9,1.611,1.843,1.843,0,0,0,1.852,1.875,1.918,1.918,0,0,0,.535-.078v3.372a1.978,1.978,0,0,0,2.007,2.127,2.013,2.013,0,0,0,1.41-.565,2.5,2.5,0,0,0,1.519.445H27.7a1.877,1.877,0,1,0,.012-3.75Z" fill="#c94e4b"/>
        <path id="Path_40156" data-name="Path 40156" d="M19.483,23.323a1.59,1.59,0,0,1,.924-.36c.432,0,1.247.18,1.247,1.415v6.189a1.014,1.014,0,1,1-2.015,0V25.338l-.912.708a1.026,1.026,0,0,1-.623.228.846.846,0,0,1-.852-.875.985.985,0,0,1,.491-.8l1.74-1.273Zm4.092,8.251c-1.127,0-1.283-.636-1.283-.959s.084-.671.684-1.223l2.747-2.5a1.768,1.768,0,0,0,.695-1.308.985.985,0,0,0-1.056-1.019,1.156,1.156,0,0,0-1.043.635,1.147,1.147,0,0,1-.947.66.889.889,0,0,1-.912-.911,1.3,1.3,0,0,1,.168-.588,3.222,3.222,0,0,1,2.843-1.511c1.559,0,3.07.828,3.07,2.6a3.411,3.411,0,0,1-1.487,2.615l-1.967,1.751H27.7a.88.88,0,1,1,0,1.75H23.575Z" fill="#fff"/>
      </g>
    </g>
  </g>
</svg>
