<svg xmlns="http://www.w3.org/2000/svg" width="36" height="36" viewBox="0 0 36 36">
  <g id="Group_26222" data-name="Group 26222" transform="translate(2372 -6367)">
    <rect id="Rectangle_18844" data-name="Rectangle 18844" width="36" height="36" transform="translate(-2372 6367)" fill="none"/>
    <g id="had_trending_itemsvg" transform="translate(-2369 6367.85)">
      <path id="Path_25129" data-name="Path 25129" d="M28.206,25.515,16.545,33.29a3.239,3.239,0,0,1-3.289,0L1.694,25.515A3.926,3.926,0,0,1,0,22.426V11.462a3.926,3.926,0,0,1,1.694-3.09L13.355.6a3.239,3.239,0,0,1,3.289,0L28.306,8.373A4.226,4.226,0,0,1,30,11.462V22.426a4.034,4.034,0,0,1-1.794,3.09Z" transform="translate(0 0)" fill="#56a4ca"/>
      <path id="Path_25130" data-name="Path 25130" d="M16.478,15.073h3.488L10,26.934l3.488-8.073H10L19.967,7Z" transform="translate(-0.033 -0.023)" fill="#fff"/>
    </g>
  </g>
</svg>
