<svg xmlns="http://www.w3.org/2000/svg" width="36" height="36" viewBox="0 0 36 36">
  <g id="Group_26221" data-name="Group 26221" transform="translate(2316 -6365)">
    <rect id="Rectangle_18844" data-name="Rectangle 18844" width="36" height="36" transform="translate(-2316 6365)" fill="none"/>
    <g id="exclusive" transform="translate(-2313 6365.848)">
      <path id="Path_25131" data-name="Path 25131" d="M30,22.5a4.192,4.192,0,0,1-1.665,3.111l-11.67,7.78a3.259,3.259,0,0,1-3.33,0L1.665,25.61A4.19,4.19,0,0,1,0,22.5v-11A4.192,4.192,0,0,1,1.665,8.39L13.335.61a3.259,3.259,0,0,1,3.33,0l11.67,7.78A4.19,4.19,0,0,1,30,11.5v11Z" fill="#d868c3"/>
      <path id="Path_25132" data-name="Path 25132" d="M15,27,25,15l-3-5H8L5,15Z" fill="#fff"/>
    </g>
  </g>
</svg>
