<svg xmlns="http://www.w3.org/2000/svg" width="36" height="36" viewBox="0 0 36 36">
  <g id="Group_26220" data-name="Group 26220" transform="translate(2259 -6365)">
    <rect id="Rectangle_18844" data-name="Rectangle 18844" width="36" height="36" transform="translate(-2259 6365)" fill="none"/>
    <g id="veteran_level_10-s-a871afdc45f7aabe043562537da7785cc50c340d7e59f4d6a950a587ab18e5ff" transform="translate(-2256 6365.85)">
      <path id="Path_40146" data-name="Path 40146" d="M29.9,22.426a3.926,3.926,0,0,1-1.694,3.09L16.545,33.29a3.239,3.239,0,0,1-3.289,0L1.694,25.515A3.926,3.926,0,0,1,0,22.426V11.462a3.926,3.926,0,0,1,1.694-3.09L13.355.6a3.239,3.239,0,0,1,3.289,0L28.306,8.373A4.226,4.226,0,0,1,30,11.462c-.1,0-.1,10.963-.1,10.963Z" transform="translate(0 0)" fill="#f38844"/>
      <path id="Path_40147" data-name="Path 40147" d="M18.592,13.379a2.244,2.244,0,0,0,1.595-1,2.031,2.031,0,0,0-.2-2.093,3.4,3.4,0,0,1-.4-2.791.366.366,0,0,0-.1-.3.187.187,0,0,0-.3,0c-.1.1-2.89,1.5-2.89,3.987a2.181,2.181,0,0,0,1.694,2.193h.6Z" transform="translate(-0.054 -0.023)" fill="#fff"/>
      <path id="Path_40148" data-name="Path 40148" d="M18.4,12v5.98" transform="translate(-0.061 -0.039)" fill="none" stroke="#f38844" stroke-linecap="round" stroke-linejoin="round" stroke-miterlimit="10" stroke-width="1"/>
      <path id="Path_40149" data-name="Path 40149" d="M11.992,13.379a2.244,2.244,0,0,0,1.595-1,2.031,2.031,0,0,0-.2-2.093,3.917,3.917,0,0,1-.4-2.791.366.366,0,0,0-.1-.3.187.187,0,0,0-.3,0c-.1.1-2.89,1.5-2.89,3.987a2.181,2.181,0,0,0,1.694,2.193h.6Z" transform="translate(-0.032 -0.023)" fill="#fff"/>
      <path id="Path_40150" data-name="Path 40150" d="M11.8,12v5.98" transform="translate(-0.039 -0.039)" fill="none" stroke="#f38844" stroke-linecap="round" stroke-linejoin="round" stroke-miterlimit="10" stroke-width="1"/>
      <path id="Path_40151" data-name="Path 40151" d="M10.089,15.4a1.944,1.944,0,0,1,1.3-.5c.6,0,1.694.2,1.694,1.894v8.472a1.406,1.406,0,0,1-1.4,1.595c-.5,0-1.4-.2-1.4-1.595V18.089l-1.3,1a1.608,1.608,0,0,1-.9.3,1.152,1.152,0,0,1-1.2-1.2c0-.4.2-.7.7-1.1.1,0,2.492-1.694,2.492-1.694Zm8.272,11.561c-3.289,0-4.585-2.89-4.585-6.179s1.3-6.08,4.585-6.08,4.585,2.791,4.585,6.08C22.847,24.168,21.651,26.959,18.362,26.959Zm0-9.867c-1.5,0-1.694,2.292-1.694,3.787s.3,3.787,1.694,3.787c1.5,0,1.694-2.292,1.694-3.787S19.757,17.092,18.362,17.092Z" transform="translate(-0.023 -0.048)" fill="#fff"/>
    </g>
  </g>
</svg>
